<mxfile host="app.diagrams.net" agent="Mozilla/5.0 (X11; Ubuntu; Linux x86_64; rv:130.0) Gecko/20100101 Firefox/130.0" version="24.7.14">
  <diagram name="Page-1" id="PcPTmF4YM8tLcv5gOb-h">
    <mxGraphModel dx="1687" dy="933" grid="1" gridSize="10" guides="1" tooltips="1" connect="1" arrows="1" fold="1" page="1" pageScale="1" pageWidth="2336" pageHeight="1654" math="0" shadow="0">
      <root>
        <mxCell id="0" />
        <mxCell id="1" parent="0" />
        <mxCell id="Tup0ONPGUO2Tr8Zoi69D-1" value="Cliente" style="swimlane;fontStyle=1;align=center;verticalAlign=top;childLayout=stackLayout;horizontal=1;startSize=26;horizontalStack=0;resizeParent=1;resizeParentMax=0;resizeLast=0;collapsible=1;marginBottom=0;whiteSpace=wrap;html=1;" vertex="1" parent="1">
          <mxGeometry x="366" y="401" width="340" height="386" as="geometry" />
        </mxCell>
        <mxCell id="Tup0ONPGUO2Tr8Zoi69D-6" value="- telefone: String" style="text;strokeColor=none;fillColor=none;align=left;verticalAlign=top;spacingLeft=4;spacingRight=4;overflow=hidden;rotatable=0;points=[[0,0.5],[1,0.5]];portConstraint=eastwest;whiteSpace=wrap;html=1;" vertex="1" parent="Tup0ONPGUO2Tr8Zoi69D-1">
          <mxGeometry y="26" width="340" height="26" as="geometry" />
        </mxCell>
        <mxCell id="Tup0ONPGUO2Tr8Zoi69D-22" value="- endereço: Endereço" style="text;strokeColor=none;fillColor=none;align=left;verticalAlign=top;spacingLeft=4;spacingRight=4;overflow=hidden;rotatable=0;points=[[0,0.5],[1,0.5]];portConstraint=eastwest;whiteSpace=wrap;html=1;" vertex="1" parent="Tup0ONPGUO2Tr8Zoi69D-1">
          <mxGeometry y="52" width="340" height="26" as="geometry" />
        </mxCell>
        <mxCell id="Tup0ONPGUO2Tr8Zoi69D-60" value="- reservas: ArrayList&amp;lt;Reserva&amp;gt;" style="text;strokeColor=none;fillColor=none;align=left;verticalAlign=top;spacingLeft=4;spacingRight=4;overflow=hidden;rotatable=0;points=[[0,0.5],[1,0.5]];portConstraint=eastwest;whiteSpace=wrap;html=1;" vertex="1" parent="Tup0ONPGUO2Tr8Zoi69D-1">
          <mxGeometry y="78" width="340" height="26" as="geometry" />
        </mxCell>
        <mxCell id="Tup0ONPGUO2Tr8Zoi69D-3" value="" style="line;strokeWidth=1;fillColor=none;align=left;verticalAlign=middle;spacingTop=-1;spacingLeft=3;spacingRight=3;rotatable=0;labelPosition=right;points=[];portConstraint=eastwest;strokeColor=inherit;" vertex="1" parent="Tup0ONPGUO2Tr8Zoi69D-1">
          <mxGeometry y="104" width="340" height="8" as="geometry" />
        </mxCell>
        <mxCell id="Tup0ONPGUO2Tr8Zoi69D-4" value="+ ReservarHospedagem(hospedagem: Hospedagem): void" style="text;strokeColor=none;fillColor=none;align=left;verticalAlign=top;spacingLeft=4;spacingRight=4;overflow=hidden;rotatable=0;points=[[0,0.5],[1,0.5]];portConstraint=eastwest;whiteSpace=wrap;html=1;" vertex="1" parent="Tup0ONPGUO2Tr8Zoi69D-1">
          <mxGeometry y="112" width="340" height="26" as="geometry" />
        </mxCell>
        <mxCell id="Tup0ONPGUO2Tr8Zoi69D-42" value="&lt;div&gt;+ PesquisarAcomodação(&lt;/div&gt;&lt;div&gt;&lt;span style=&quot;white-space: pre;&quot;&gt;&#x9;lugar&lt;/span&gt;: String&lt;br&gt;&lt;/div&gt;&lt;div&gt;&lt;span style=&quot;white-space: pre;&quot;&gt;&#x9;&lt;/span&gt;checkin: Data&lt;/div&gt;&lt;div&gt;&lt;span style=&quot;white-space: pre;&quot;&gt;&#x9;&lt;/span&gt;checkout: Data&lt;/div&gt;&lt;div&gt;&lt;span style=&quot;white-space: pre;&quot;&gt;&#x9;&lt;/span&gt;hospedes: ArrayList&amp;lt;Hospede&amp;gt;&lt;/div&gt;&lt;div&gt;): hospedagem&lt;/div&gt;" style="text;strokeColor=none;fillColor=none;align=left;verticalAlign=top;spacingLeft=4;spacingRight=4;overflow=hidden;rotatable=0;points=[[0,0.5],[1,0.5]];portConstraint=eastwest;whiteSpace=wrap;html=1;" vertex="1" parent="Tup0ONPGUO2Tr8Zoi69D-1">
          <mxGeometry y="138" width="340" height="98" as="geometry" />
        </mxCell>
        <mxCell id="Tup0ONPGUO2Tr8Zoi69D-48" value="&lt;div&gt;+ ReservarAcomodação(&lt;/div&gt;&lt;div&gt;&lt;span style=&quot;white-space: pre;&quot;&gt;&#x9;hospedagem&lt;/span&gt;: Hospedagem&lt;br&gt;&lt;/div&gt;&lt;div&gt;&lt;span style=&quot;white-space: pre;&quot;&gt;&#x9;&lt;/span&gt;checkin: Data&lt;/div&gt;&lt;div&gt;&lt;span style=&quot;white-space: pre;&quot;&gt;&#x9;&lt;/span&gt;checkout: Data&lt;/div&gt;&lt;div&gt;&lt;span style=&quot;white-space: pre;&quot;&gt;&#x9;&lt;/span&gt;hospedes: ArrayList&amp;lt;Hospede&amp;gt;&lt;/div&gt;&lt;div&gt;): hospedagem&lt;/div&gt;" style="text;strokeColor=none;fillColor=none;align=left;verticalAlign=top;spacingLeft=4;spacingRight=4;overflow=hidden;rotatable=0;points=[[0,0.5],[1,0.5]];portConstraint=eastwest;whiteSpace=wrap;html=1;" vertex="1" parent="Tup0ONPGUO2Tr8Zoi69D-1">
          <mxGeometry y="236" width="340" height="98" as="geometry" />
        </mxCell>
        <mxCell id="Tup0ONPGUO2Tr8Zoi69D-62" value="+ VisualizarReserva(idReserva: string): Reserva" style="text;strokeColor=none;fillColor=none;align=left;verticalAlign=top;spacingLeft=4;spacingRight=4;overflow=hidden;rotatable=0;points=[[0,0.5],[1,0.5]];portConstraint=eastwest;whiteSpace=wrap;html=1;" vertex="1" parent="Tup0ONPGUO2Tr8Zoi69D-1">
          <mxGeometry y="334" width="340" height="26" as="geometry" />
        </mxCell>
        <mxCell id="Tup0ONPGUO2Tr8Zoi69D-63" value="+ ModificarReserva(idReserva: string): Reserva" style="text;strokeColor=none;fillColor=none;align=left;verticalAlign=top;spacingLeft=4;spacingRight=4;overflow=hidden;rotatable=0;points=[[0,0.5],[1,0.5]];portConstraint=eastwest;whiteSpace=wrap;html=1;" vertex="1" parent="Tup0ONPGUO2Tr8Zoi69D-1">
          <mxGeometry y="360" width="340" height="26" as="geometry" />
        </mxCell>
        <mxCell id="Tup0ONPGUO2Tr8Zoi69D-7" value="Hospedagem" style="swimlane;fontStyle=1;align=center;verticalAlign=top;childLayout=stackLayout;horizontal=1;startSize=26;horizontalStack=0;resizeParent=1;resizeParentMax=0;resizeLast=0;collapsible=1;marginBottom=0;whiteSpace=wrap;html=1;" vertex="1" parent="1">
          <mxGeometry x="620" y="902" width="260" height="242" as="geometry" />
        </mxCell>
        <mxCell id="Tup0ONPGUO2Tr8Zoi69D-8" value="- nome: String" style="text;strokeColor=none;fillColor=none;align=left;verticalAlign=top;spacingLeft=4;spacingRight=4;overflow=hidden;rotatable=0;points=[[0,0.5],[1,0.5]];portConstraint=eastwest;whiteSpace=wrap;html=1;" vertex="1" parent="Tup0ONPGUO2Tr8Zoi69D-7">
          <mxGeometry y="26" width="260" height="26" as="geometry" />
        </mxCell>
        <mxCell id="Tup0ONPGUO2Tr8Zoi69D-11" value="- endereço: Endereço" style="text;strokeColor=none;fillColor=none;align=left;verticalAlign=top;spacingLeft=4;spacingRight=4;overflow=hidden;rotatable=0;points=[[0,0.5],[1,0.5]];portConstraint=eastwest;whiteSpace=wrap;html=1;" vertex="1" parent="Tup0ONPGUO2Tr8Zoi69D-7">
          <mxGeometry y="52" width="260" height="26" as="geometry" />
        </mxCell>
        <mxCell id="Tup0ONPGUO2Tr8Zoi69D-12" value="- tipo: String" style="text;strokeColor=none;fillColor=none;align=left;verticalAlign=top;spacingLeft=4;spacingRight=4;overflow=hidden;rotatable=0;points=[[0,0.5],[1,0.5]];portConstraint=eastwest;whiteSpace=wrap;html=1;" vertex="1" parent="Tup0ONPGUO2Tr8Zoi69D-7">
          <mxGeometry y="78" width="260" height="26" as="geometry" />
        </mxCell>
        <mxCell id="Tup0ONPGUO2Tr8Zoi69D-43" value="- fotos: ArrayList&amp;lt;String&amp;gt;" style="text;strokeColor=none;fillColor=none;align=left;verticalAlign=top;spacingLeft=4;spacingRight=4;overflow=hidden;rotatable=0;points=[[0,0.5],[1,0.5]];portConstraint=eastwest;whiteSpace=wrap;html=1;" vertex="1" parent="Tup0ONPGUO2Tr8Zoi69D-7">
          <mxGeometry y="104" width="260" height="26" as="geometry" />
        </mxCell>
        <mxCell id="Tup0ONPGUO2Tr8Zoi69D-44" value="- comodidades: ArrayList&amp;lt;Comodidades&amp;gt;" style="text;strokeColor=none;fillColor=none;align=left;verticalAlign=top;spacingLeft=4;spacingRight=4;overflow=hidden;rotatable=0;points=[[0,0.5],[1,0.5]];portConstraint=eastwest;whiteSpace=wrap;html=1;" vertex="1" parent="Tup0ONPGUO2Tr8Zoi69D-7">
          <mxGeometry y="130" width="260" height="26" as="geometry" />
        </mxCell>
        <mxCell id="Tup0ONPGUO2Tr8Zoi69D-46" value="- preco: double" style="text;strokeColor=none;fillColor=none;align=left;verticalAlign=top;spacingLeft=4;spacingRight=4;overflow=hidden;rotatable=0;points=[[0,0.5],[1,0.5]];portConstraint=eastwest;whiteSpace=wrap;html=1;" vertex="1" parent="Tup0ONPGUO2Tr8Zoi69D-7">
          <mxGeometry y="156" width="260" height="26" as="geometry" />
        </mxCell>
        <mxCell id="Tup0ONPGUO2Tr8Zoi69D-9" value="" style="line;strokeWidth=1;fillColor=none;align=left;verticalAlign=middle;spacingTop=-1;spacingLeft=3;spacingRight=3;rotatable=0;labelPosition=right;points=[];portConstraint=eastwest;strokeColor=inherit;" vertex="1" parent="Tup0ONPGUO2Tr8Zoi69D-7">
          <mxGeometry y="182" width="260" height="8" as="geometry" />
        </mxCell>
        <mxCell id="Tup0ONPGUO2Tr8Zoi69D-10" value="+ ExibirDetalhes(): Hospedagem" style="text;strokeColor=none;fillColor=none;align=left;verticalAlign=top;spacingLeft=4;spacingRight=4;overflow=hidden;rotatable=0;points=[[0,0.5],[1,0.5]];portConstraint=eastwest;whiteSpace=wrap;html=1;" vertex="1" parent="Tup0ONPGUO2Tr8Zoi69D-7">
          <mxGeometry y="190" width="260" height="26" as="geometry" />
        </mxCell>
        <mxCell id="Tup0ONPGUO2Tr8Zoi69D-49" value="&lt;div&gt;+ ChecarDisponibilidade(&lt;/div&gt;&lt;div&gt;&lt;span style=&quot;white-space: pre;&quot;&gt;&#x9;&lt;/span&gt;): Hospedagem&lt;/div&gt;" style="text;strokeColor=none;fillColor=none;align=left;verticalAlign=top;spacingLeft=4;spacingRight=4;overflow=hidden;rotatable=0;points=[[0,0.5],[1,0.5]];portConstraint=eastwest;whiteSpace=wrap;html=1;" vertex="1" parent="Tup0ONPGUO2Tr8Zoi69D-7">
          <mxGeometry y="216" width="260" height="26" as="geometry" />
        </mxCell>
        <mxCell id="Tup0ONPGUO2Tr8Zoi69D-13" value="Endereço" style="swimlane;fontStyle=1;align=center;verticalAlign=top;childLayout=stackLayout;horizontal=1;startSize=26;horizontalStack=0;resizeParent=1;resizeParentMax=0;resizeLast=0;collapsible=1;marginBottom=0;whiteSpace=wrap;html=1;" vertex="1" parent="1">
          <mxGeometry x="198" y="892" width="160" height="216" as="geometry" />
        </mxCell>
        <mxCell id="Tup0ONPGUO2Tr8Zoi69D-14" value="- cep: String" style="text;strokeColor=none;fillColor=none;align=left;verticalAlign=top;spacingLeft=4;spacingRight=4;overflow=hidden;rotatable=0;points=[[0,0.5],[1,0.5]];portConstraint=eastwest;whiteSpace=wrap;html=1;" vertex="1" parent="Tup0ONPGUO2Tr8Zoi69D-13">
          <mxGeometry y="26" width="160" height="26" as="geometry" />
        </mxCell>
        <mxCell id="Tup0ONPGUO2Tr8Zoi69D-17" value="- rua: String" style="text;strokeColor=none;fillColor=none;align=left;verticalAlign=top;spacingLeft=4;spacingRight=4;overflow=hidden;rotatable=0;points=[[0,0.5],[1,0.5]];portConstraint=eastwest;whiteSpace=wrap;html=1;" vertex="1" parent="Tup0ONPGUO2Tr8Zoi69D-13">
          <mxGeometry y="52" width="160" height="26" as="geometry" />
        </mxCell>
        <mxCell id="Tup0ONPGUO2Tr8Zoi69D-18" value="- numero: String" style="text;strokeColor=none;fillColor=none;align=left;verticalAlign=top;spacingLeft=4;spacingRight=4;overflow=hidden;rotatable=0;points=[[0,0.5],[1,0.5]];portConstraint=eastwest;whiteSpace=wrap;html=1;" vertex="1" parent="Tup0ONPGUO2Tr8Zoi69D-13">
          <mxGeometry y="78" width="160" height="26" as="geometry" />
        </mxCell>
        <mxCell id="Tup0ONPGUO2Tr8Zoi69D-19" value="- bairro: String" style="text;strokeColor=none;fillColor=none;align=left;verticalAlign=top;spacingLeft=4;spacingRight=4;overflow=hidden;rotatable=0;points=[[0,0.5],[1,0.5]];portConstraint=eastwest;whiteSpace=wrap;html=1;" vertex="1" parent="Tup0ONPGUO2Tr8Zoi69D-13">
          <mxGeometry y="104" width="160" height="26" as="geometry" />
        </mxCell>
        <mxCell id="Tup0ONPGUO2Tr8Zoi69D-20" value="- cidade: String" style="text;strokeColor=none;fillColor=none;align=left;verticalAlign=top;spacingLeft=4;spacingRight=4;overflow=hidden;rotatable=0;points=[[0,0.5],[1,0.5]];portConstraint=eastwest;whiteSpace=wrap;html=1;" vertex="1" parent="Tup0ONPGUO2Tr8Zoi69D-13">
          <mxGeometry y="130" width="160" height="26" as="geometry" />
        </mxCell>
        <mxCell id="Tup0ONPGUO2Tr8Zoi69D-21" value="- estado: String" style="text;strokeColor=none;fillColor=none;align=left;verticalAlign=top;spacingLeft=4;spacingRight=4;overflow=hidden;rotatable=0;points=[[0,0.5],[1,0.5]];portConstraint=eastwest;whiteSpace=wrap;html=1;" vertex="1" parent="Tup0ONPGUO2Tr8Zoi69D-13">
          <mxGeometry y="156" width="160" height="26" as="geometry" />
        </mxCell>
        <mxCell id="Tup0ONPGUO2Tr8Zoi69D-15" value="" style="line;strokeWidth=1;fillColor=none;align=left;verticalAlign=middle;spacingTop=-1;spacingLeft=3;spacingRight=3;rotatable=0;labelPosition=right;points=[];portConstraint=eastwest;strokeColor=inherit;" vertex="1" parent="Tup0ONPGUO2Tr8Zoi69D-13">
          <mxGeometry y="182" width="160" height="8" as="geometry" />
        </mxCell>
        <mxCell id="Tup0ONPGUO2Tr8Zoi69D-16" value="+ method(type): type" style="text;strokeColor=none;fillColor=none;align=left;verticalAlign=top;spacingLeft=4;spacingRight=4;overflow=hidden;rotatable=0;points=[[0,0.5],[1,0.5]];portConstraint=eastwest;whiteSpace=wrap;html=1;" vertex="1" parent="Tup0ONPGUO2Tr8Zoi69D-13">
          <mxGeometry y="190" width="160" height="26" as="geometry" />
        </mxCell>
        <mxCell id="Tup0ONPGUO2Tr8Zoi69D-23" value="Admin" style="swimlane;fontStyle=1;align=center;verticalAlign=top;childLayout=stackLayout;horizontal=1;startSize=26;horizontalStack=0;resizeParent=1;resizeParentMax=0;resizeLast=0;collapsible=1;marginBottom=0;whiteSpace=wrap;html=1;" vertex="1" parent="1">
          <mxGeometry x="736" y="401" width="330" height="86" as="geometry" />
        </mxCell>
        <mxCell id="Tup0ONPGUO2Tr8Zoi69D-27" value="- idColaborador: String" style="text;strokeColor=none;fillColor=none;align=left;verticalAlign=top;spacingLeft=4;spacingRight=4;overflow=hidden;rotatable=0;points=[[0,0.5],[1,0.5]];portConstraint=eastwest;whiteSpace=wrap;html=1;" vertex="1" parent="Tup0ONPGUO2Tr8Zoi69D-23">
          <mxGeometry y="26" width="330" height="26" as="geometry" />
        </mxCell>
        <mxCell id="Tup0ONPGUO2Tr8Zoi69D-25" value="" style="line;strokeWidth=1;fillColor=none;align=left;verticalAlign=middle;spacingTop=-1;spacingLeft=3;spacingRight=3;rotatable=0;labelPosition=right;points=[];portConstraint=eastwest;strokeColor=inherit;" vertex="1" parent="Tup0ONPGUO2Tr8Zoi69D-23">
          <mxGeometry y="52" width="330" height="8" as="geometry" />
        </mxCell>
        <mxCell id="Tup0ONPGUO2Tr8Zoi69D-26" value="+ CadastrarHospedagem(hospedagem: Hospedagem): void" style="text;strokeColor=none;fillColor=none;align=left;verticalAlign=top;spacingLeft=4;spacingRight=4;overflow=hidden;rotatable=0;points=[[0,0.5],[1,0.5]];portConstraint=eastwest;whiteSpace=wrap;html=1;" vertex="1" parent="Tup0ONPGUO2Tr8Zoi69D-23">
          <mxGeometry y="60" width="330" height="26" as="geometry" />
        </mxCell>
        <mxCell id="Tup0ONPGUO2Tr8Zoi69D-28" value="Usuário" style="swimlane;fontStyle=1;align=center;verticalAlign=top;childLayout=stackLayout;horizontal=1;startSize=26;horizontalStack=0;resizeParent=1;resizeParentMax=0;resizeLast=0;collapsible=1;marginBottom=0;whiteSpace=wrap;html=1;" vertex="1" parent="1">
          <mxGeometry x="613" y="10" width="357" height="242" as="geometry" />
        </mxCell>
        <mxCell id="Tup0ONPGUO2Tr8Zoi69D-29" value="- nome: String" style="text;strokeColor=none;fillColor=none;align=left;verticalAlign=top;spacingLeft=4;spacingRight=4;overflow=hidden;rotatable=0;points=[[0,0.5],[1,0.5]];portConstraint=eastwest;whiteSpace=wrap;html=1;" vertex="1" parent="Tup0ONPGUO2Tr8Zoi69D-28">
          <mxGeometry y="26" width="357" height="26" as="geometry" />
        </mxCell>
        <mxCell id="Tup0ONPGUO2Tr8Zoi69D-33" value="- email: String" style="text;strokeColor=none;fillColor=none;align=left;verticalAlign=top;spacingLeft=4;spacingRight=4;overflow=hidden;rotatable=0;points=[[0,0.5],[1,0.5]];portConstraint=eastwest;whiteSpace=wrap;html=1;" vertex="1" parent="Tup0ONPGUO2Tr8Zoi69D-28">
          <mxGeometry y="52" width="357" height="26" as="geometry" />
        </mxCell>
        <mxCell id="Tup0ONPGUO2Tr8Zoi69D-35" value="- senha: String" style="text;strokeColor=none;fillColor=none;align=left;verticalAlign=top;spacingLeft=4;spacingRight=4;overflow=hidden;rotatable=0;points=[[0,0.5],[1,0.5]];portConstraint=eastwest;whiteSpace=wrap;html=1;" vertex="1" parent="Tup0ONPGUO2Tr8Zoi69D-28">
          <mxGeometry y="78" width="357" height="26" as="geometry" />
        </mxCell>
        <mxCell id="Tup0ONPGUO2Tr8Zoi69D-30" value="" style="line;strokeWidth=1;fillColor=none;align=left;verticalAlign=middle;spacingTop=-1;spacingLeft=3;spacingRight=3;rotatable=0;labelPosition=right;points=[];portConstraint=eastwest;strokeColor=inherit;" vertex="1" parent="Tup0ONPGUO2Tr8Zoi69D-28">
          <mxGeometry y="104" width="357" height="8" as="geometry" />
        </mxCell>
        <mxCell id="Tup0ONPGUO2Tr8Zoi69D-31" value="+ login(email: String, senha: string): Sessao" style="text;strokeColor=none;fillColor=none;align=left;verticalAlign=top;spacingLeft=4;spacingRight=4;overflow=hidden;rotatable=0;points=[[0,0.5],[1,0.5]];portConstraint=eastwest;whiteSpace=wrap;html=1;" vertex="1" parent="Tup0ONPGUO2Tr8Zoi69D-28">
          <mxGeometry y="112" width="357" height="26" as="geometry" />
        </mxCell>
        <mxCell id="Tup0ONPGUO2Tr8Zoi69D-69" value="+ logout(email: String, senha: string): Sessao" style="text;strokeColor=none;fillColor=none;align=left;verticalAlign=top;spacingLeft=4;spacingRight=4;overflow=hidden;rotatable=0;points=[[0,0.5],[1,0.5]];portConstraint=eastwest;whiteSpace=wrap;html=1;" vertex="1" parent="Tup0ONPGUO2Tr8Zoi69D-28">
          <mxGeometry y="138" width="357" height="26" as="geometry" />
        </mxCell>
        <mxCell id="Tup0ONPGUO2Tr8Zoi69D-70" value="+ RecuperarSenha(email: String): Sessao" style="text;strokeColor=none;fillColor=none;align=left;verticalAlign=top;spacingLeft=4;spacingRight=4;overflow=hidden;rotatable=0;points=[[0,0.5],[1,0.5]];portConstraint=eastwest;whiteSpace=wrap;html=1;" vertex="1" parent="Tup0ONPGUO2Tr8Zoi69D-28">
          <mxGeometry y="164" width="357" height="26" as="geometry" />
        </mxCell>
        <mxCell id="Tup0ONPGUO2Tr8Zoi69D-71" value="+ TrocarSenha(senhaAntiga: String, senhaNova: string): Sessao" style="text;strokeColor=none;fillColor=none;align=left;verticalAlign=top;spacingLeft=4;spacingRight=4;overflow=hidden;rotatable=0;points=[[0,0.5],[1,0.5]];portConstraint=eastwest;whiteSpace=wrap;html=1;" vertex="1" parent="Tup0ONPGUO2Tr8Zoi69D-28">
          <mxGeometry y="190" width="357" height="26" as="geometry" />
        </mxCell>
        <mxCell id="Tup0ONPGUO2Tr8Zoi69D-72" value="+ Cadastrar(senhaAntiga: String, senhaNova: string): Sessao" style="text;strokeColor=none;fillColor=none;align=left;verticalAlign=top;spacingLeft=4;spacingRight=4;overflow=hidden;rotatable=0;points=[[0,0.5],[1,0.5]];portConstraint=eastwest;whiteSpace=wrap;html=1;" vertex="1" parent="Tup0ONPGUO2Tr8Zoi69D-28">
          <mxGeometry y="216" width="357" height="26" as="geometry" />
        </mxCell>
        <mxCell id="Tup0ONPGUO2Tr8Zoi69D-32" value="Extends" style="endArrow=block;endSize=16;endFill=0;html=1;rounded=0;exitX=0.675;exitY=0;exitDx=0;exitDy=0;exitPerimeter=0;entryX=0.099;entryY=1.138;entryDx=0;entryDy=0;entryPerimeter=0;" edge="1" parent="1" target="Tup0ONPGUO2Tr8Zoi69D-72">
          <mxGeometry width="160" relative="1" as="geometry">
            <mxPoint x="646" y="401" as="sourcePoint" />
            <mxPoint x="648" y="253" as="targetPoint" />
          </mxGeometry>
        </mxCell>
        <mxCell id="Tup0ONPGUO2Tr8Zoi69D-34" value="Extends" style="endArrow=block;endSize=16;endFill=0;html=1;rounded=0;exitX=0.25;exitY=0;exitDx=0;exitDy=0;entryX=0.576;entryY=0.985;entryDx=0;entryDy=0;entryPerimeter=0;" edge="1" parent="1" source="Tup0ONPGUO2Tr8Zoi69D-23" target="Tup0ONPGUO2Tr8Zoi69D-72">
          <mxGeometry width="160" relative="1" as="geometry">
            <mxPoint x="766" y="345" as="sourcePoint" />
            <mxPoint x="819" y="260" as="targetPoint" />
          </mxGeometry>
        </mxCell>
        <mxCell id="Tup0ONPGUO2Tr8Zoi69D-39" value="1" style="endArrow=open;html=1;endSize=12;startArrow=diamondThin;startSize=14;startFill=1;edgeStyle=orthogonalEdgeStyle;align=left;verticalAlign=bottom;rounded=0;exitX=0.187;exitY=1.023;exitDx=0;exitDy=0;exitPerimeter=0;" edge="1" parent="1" source="Tup0ONPGUO2Tr8Zoi69D-63" target="Tup0ONPGUO2Tr8Zoi69D-14">
          <mxGeometry x="-0.6" y="10" relative="1" as="geometry">
            <mxPoint x="429" y="793" as="sourcePoint" />
            <mxPoint x="380" y="891.998" as="targetPoint" />
            <Array as="points">
              <mxPoint x="430" y="923" />
            </Array>
            <mxPoint as="offset" />
          </mxGeometry>
        </mxCell>
        <mxCell id="Tup0ONPGUO2Tr8Zoi69D-47" value="1" style="endArrow=open;html=1;endSize=12;startArrow=diamondThin;startSize=14;startFill=1;edgeStyle=orthogonalEdgeStyle;align=left;verticalAlign=bottom;rounded=0;exitX=0;exitY=0.5;exitDx=0;exitDy=0;entryX=0.999;entryY=0.912;entryDx=0;entryDy=0;entryPerimeter=0;" edge="1" parent="1">
          <mxGeometry x="-0.7271" y="21" relative="1" as="geometry">
            <mxPoint x="620" y="997" as="sourcePoint" />
            <mxPoint x="357.8399999999999" y="997.712" as="targetPoint" />
            <mxPoint as="offset" />
          </mxGeometry>
        </mxCell>
        <mxCell id="Tup0ONPGUO2Tr8Zoi69D-50" value="Reserva" style="swimlane;fontStyle=1;align=center;verticalAlign=top;childLayout=stackLayout;horizontal=1;startSize=26;horizontalStack=0;resizeParent=1;resizeParentMax=0;resizeLast=0;collapsible=1;marginBottom=0;whiteSpace=wrap;html=1;" vertex="1" parent="1">
          <mxGeometry x="990" y="633" width="250" height="242" as="geometry" />
        </mxCell>
        <mxCell id="Tup0ONPGUO2Tr8Zoi69D-51" value="- cliente: Cliente" style="text;strokeColor=none;fillColor=none;align=left;verticalAlign=top;spacingLeft=4;spacingRight=4;overflow=hidden;rotatable=0;points=[[0,0.5],[1,0.5]];portConstraint=eastwest;whiteSpace=wrap;html=1;" vertex="1" parent="Tup0ONPGUO2Tr8Zoi69D-50">
          <mxGeometry y="26" width="250" height="26" as="geometry" />
        </mxCell>
        <mxCell id="Tup0ONPGUO2Tr8Zoi69D-61" value="- idReserva: Cliente" style="text;strokeColor=none;fillColor=none;align=left;verticalAlign=top;spacingLeft=4;spacingRight=4;overflow=hidden;rotatable=0;points=[[0,0.5],[1,0.5]];portConstraint=eastwest;whiteSpace=wrap;html=1;" vertex="1" parent="Tup0ONPGUO2Tr8Zoi69D-50">
          <mxGeometry y="52" width="250" height="26" as="geometry" />
        </mxCell>
        <mxCell id="Tup0ONPGUO2Tr8Zoi69D-56" value="- hospedagem: Hospedagem" style="text;strokeColor=none;fillColor=none;align=left;verticalAlign=top;spacingLeft=4;spacingRight=4;overflow=hidden;rotatable=0;points=[[0,0.5],[1,0.5]];portConstraint=eastwest;whiteSpace=wrap;html=1;" vertex="1" parent="Tup0ONPGUO2Tr8Zoi69D-50">
          <mxGeometry y="78" width="250" height="26" as="geometry" />
        </mxCell>
        <mxCell id="Tup0ONPGUO2Tr8Zoi69D-57" value="- checkin: Data" style="text;strokeColor=none;fillColor=none;align=left;verticalAlign=top;spacingLeft=4;spacingRight=4;overflow=hidden;rotatable=0;points=[[0,0.5],[1,0.5]];portConstraint=eastwest;whiteSpace=wrap;html=1;" vertex="1" parent="Tup0ONPGUO2Tr8Zoi69D-50">
          <mxGeometry y="104" width="250" height="26" as="geometry" />
        </mxCell>
        <mxCell id="Tup0ONPGUO2Tr8Zoi69D-58" value="- checkout: Data" style="text;strokeColor=none;fillColor=none;align=left;verticalAlign=top;spacingLeft=4;spacingRight=4;overflow=hidden;rotatable=0;points=[[0,0.5],[1,0.5]];portConstraint=eastwest;whiteSpace=wrap;html=1;" vertex="1" parent="Tup0ONPGUO2Tr8Zoi69D-50">
          <mxGeometry y="130" width="250" height="26" as="geometry" />
        </mxCell>
        <mxCell id="Tup0ONPGUO2Tr8Zoi69D-59" value="- status: String" style="text;strokeColor=none;fillColor=none;align=left;verticalAlign=top;spacingLeft=4;spacingRight=4;overflow=hidden;rotatable=0;points=[[0,0.5],[1,0.5]];portConstraint=eastwest;whiteSpace=wrap;html=1;" vertex="1" parent="Tup0ONPGUO2Tr8Zoi69D-50">
          <mxGeometry y="156" width="250" height="26" as="geometry" />
        </mxCell>
        <mxCell id="Tup0ONPGUO2Tr8Zoi69D-54" value="- listaDeHospedes: ArrayList&amp;lt;Hospedes&amp;gt;" style="text;strokeColor=none;fillColor=none;align=left;verticalAlign=top;spacingLeft=4;spacingRight=4;overflow=hidden;rotatable=0;points=[[0,0.5],[1,0.5]];portConstraint=eastwest;whiteSpace=wrap;html=1;" vertex="1" parent="Tup0ONPGUO2Tr8Zoi69D-50">
          <mxGeometry y="182" width="250" height="26" as="geometry" />
        </mxCell>
        <mxCell id="Tup0ONPGUO2Tr8Zoi69D-52" value="" style="line;strokeWidth=1;fillColor=none;align=left;verticalAlign=middle;spacingTop=-1;spacingLeft=3;spacingRight=3;rotatable=0;labelPosition=right;points=[];portConstraint=eastwest;strokeColor=inherit;" vertex="1" parent="Tup0ONPGUO2Tr8Zoi69D-50">
          <mxGeometry y="208" width="250" height="8" as="geometry" />
        </mxCell>
        <mxCell id="Tup0ONPGUO2Tr8Zoi69D-53" value="+ method(type): type" style="text;strokeColor=none;fillColor=none;align=left;verticalAlign=top;spacingLeft=4;spacingRight=4;overflow=hidden;rotatable=0;points=[[0,0.5],[1,0.5]];portConstraint=eastwest;whiteSpace=wrap;html=1;" vertex="1" parent="Tup0ONPGUO2Tr8Zoi69D-50">
          <mxGeometry y="216" width="250" height="26" as="geometry" />
        </mxCell>
        <mxCell id="Tup0ONPGUO2Tr8Zoi69D-66" value="Relation" style="endArrow=open;html=1;endSize=12;startArrow=diamondThin;startSize=14;startFill=0;edgeStyle=orthogonalEdgeStyle;rounded=0;entryX=1.007;entryY=0.107;entryDx=0;entryDy=0;entryPerimeter=0;exitX=0;exitY=0.5;exitDx=0;exitDy=0;" edge="1" parent="1" source="Tup0ONPGUO2Tr8Zoi69D-58" target="Tup0ONPGUO2Tr8Zoi69D-42">
          <mxGeometry relative="1" as="geometry">
            <mxPoint x="790" y="753.58" as="sourcePoint" />
            <mxPoint x="950" y="753.58" as="targetPoint" />
          </mxGeometry>
        </mxCell>
        <mxCell id="Tup0ONPGUO2Tr8Zoi69D-67" value="0..n" style="edgeLabel;resizable=0;html=1;align=left;verticalAlign=top;" connectable="0" vertex="1" parent="Tup0ONPGUO2Tr8Zoi69D-66">
          <mxGeometry x="-1" relative="1" as="geometry">
            <mxPoint x="-40" y="-33" as="offset" />
          </mxGeometry>
        </mxCell>
        <mxCell id="Tup0ONPGUO2Tr8Zoi69D-68" value="1" style="edgeLabel;resizable=0;html=1;align=right;verticalAlign=top;" connectable="0" vertex="1" parent="Tup0ONPGUO2Tr8Zoi69D-66">
          <mxGeometry x="1" relative="1" as="geometry">
            <mxPoint x="21" y="-30" as="offset" />
          </mxGeometry>
        </mxCell>
      </root>
    </mxGraphModel>
  </diagram>
</mxfile>
